/* XPM */
static char *_8000c0990514f5cf5036ba5277a855e9oXHnBWh6Kcof4Ed[] = {
/* columns rows colors chars-per-pixel */
"16 16 39 1 ",
"  c #493518",
". c #523919",
"X c #573C1B",
"o c #5B3C1C",
"O c #6A431F",
"+ c #634721",
"@ c #674A22",
"# c #724520",
"$ c #754622",
"% c #785327",
"& c #765729",
"* c #7A5B2B",
"= c #80572A",
"- c #82592C",
"; c #896832",
": c #8F6B35",
"> c #906D35",
", c #916D38",
"< c #947338",
"1 c #539C41",
"2 c #549D42",
"3 c #57A045",
"4 c #58A146",
"5 c #5BA449",
"6 c #5CA54A",
"7 c #5EA74C",
"8 c #5FA84D",
"9 c #62AB50",
"0 c #63AC51",
"q c #66AF54",
"w c #69B257",
"e c #6AB358",
"r c #6DB65B",
"t c #6EB75C",
"y c #70B95E",
"u c #72BB60",
"i c #A08340",
"p c #A58845",
"a c #A78A49",
/* pixels */
"XXo..o.XXX. ..XX",
"O,;;;:::,,,:*,,O",
"X&+@@@*,,@@++&*X",
"$;%980i*;-697p:$",
"O;@4rti:,=3eri;O",
"$,-e39i;*%541a,$",
"X;*aaai,;,piii;X",
"O,,,,;,*,,::,,,O",
"O,,,,;,:,,::,,,O",
"O;%%%=:;&%%@-;;O",
"O:=w4ui,;%e47p:O",
"X&@w94<*;@62y>&X",
"$,-608i,,%62q<,$",
"#;*aaai;*,piii;#",
"$,;;;,,:,,;:,,,$",
"XXXo..o.XXX. ..X"
};
