/* XPM */
static char *e439e1d5116e4796a63dac37a9a7de3bJ2v7aKZSga9CugSm[] = {
/* columns rows colors chars-per-pixel */
"16 16 45 1 ",
"  c #523919",
". c #573C1B",
"X c #6A431F",
"o c #724520",
"O c #754622",
"+ c #765729",
"@ c #7A5B2B",
"# c #896832",
"$ c #8F6B35",
"% c #906D35",
"& c #916D38",
"* c #947338",
"= c #4F983D",
"- c #519A3F",
"; c #529B40",
": c #539C41",
"> c #559E43",
", c #569F44",
"< c #57A045",
"1 c #59A247",
"2 c #5AA348",
"3 c #5BA449",
"4 c #5DA64B",
"5 c #5EA74C",
"6 c #5FA84D",
"7 c #60A94E",
"8 c #62AB50",
"9 c #63AC51",
"0 c #64AD52",
"q c #66AF54",
"w c #67B055",
"e c #69B257",
"r c #6AB358",
"t c #6BB459",
"y c #6DB65B",
"u c #6EB75C",
"i c #70B95E",
"p c #72BB60",
"a c #74BD62",
"s c #76BF64",
"d c #77C065",
"f c #78C166",
"g c #A08340",
"h c #A58845",
"j c #A78A49",
/* pixels */
" ..225,4q8423r=4",
"&&X89<91,tr7f424",
"+@.133667qty2;<p",
"h$O869>7,14854r>",
"g#X1yu3ya-<ry,34",
"j&Or<8702731:357",
"g#.6714,12iy6r85",
"&&X46>e18y2<5w,t",
"&&Xyy<y0iy1717q,",
"##X449y<267t5i5<",
"h$Xe1p57d:r15385",
"%+.e8173874>i,>4",
"*&O4961>464>qe:8",
"g#o7>9<fw7t0w3tu",
"&&O>iy77,772t04:",
"  .3e9775s>t163q"
};
