/* XPM */
static char *_51c7e8080ce4be1b7c627f71296642cvHYcGmyJXUSLj7p9[] = {
/* columns rows colors chars-per-pixel */
"16 16 47 1 ",
"  c #241808",
". c #281C0B",
"X c #2B1E0D",
"o c #2F1F0F",
"O c #2F200D",
"+ c #332411",
"@ c #342512",
"# c #3F2A15",
"$ c #422A12",
"% c #4C3D26",
"& c #6D432A",
"* c #6F452C",
"= c #6A4030",
"- c #774235",
"; c #7A4E33",
": c #695433",
"> c #735E39",
", c #7C623E",
"< c #805334",
"1 c #815339",
"2 c #83553B",
"3 c #8F5E3E",
"4 c #905E43",
"5 c #965F40",
"6 c #9C6346",
"7 c #9C694C",
"8 c #9C725C",
"9 c #A26A47",
"0 c #AC765A",
"q c #AA7D66",
"w c #B37B62",
"e c #B57B67",
"r c #9F844D",
"t c #B4905A",
"y c #AD806D",
"u c #B4846D",
"i c #B6896C",
"p c #BE886C",
"a c #BC9862",
"s c #B78272",
"d c #BB8972",
"f c #BD8B72",
"g c #BD8E72",
"h c #BD8E74",
"j c #523D89",
"k c #C69680",
"l c white",
/* pixels */
"arrrraatraaaaaar",
"aat>ttrrrrrtrtar",
"aarrrrtt>aataaar",
":::>>>>>>>::::>>",
"arrrOXo.  XXttta",
"rr>tXXX+$#o.rrrr",
"aaatXigkfh0@aaaa",
">>::quqy8d77::>>",
"aaaauljedjlqaaar",
"rrrr6ws==p9<arrr",
"attt45----31tttr",
">:>>*&11;22;:::>",
"aaaaararr>rrtaaa",
"tr>aaaarattrrrrt",
"aarrraaraartaaaa",
">>>,::,:>>>:%::>"
};
