/* XPM */
static char *_3321d2801a346f5c12c63e1a2f4c106dCOMU7gEWAm3n8hN[] = {
/* columns rows colors chars-per-pixel */
"96 96 58 1 ",
"  c #4B3C25",
". c #4A3E26",
"X c #4C3E24",
"o c #4C3D26",
"O c #4D3D26",
"+ c #4C3D28",
"@ c #695532",
"# c #685433",
"$ c #685632",
"% c #685534",
"& c #695534",
"* c #695435",
"= c #6B5434",
"- c #6A5635",
"; c #745E37",
": c #735D38",
"> c #725E39",
", c #755D39",
"< c #745E39",
"1 c #745D3B",
"2 c #755D3B",
"3 c #755F3A",
"4 c #7B613E",
"5 c #7B633F",
"6 c #7E613F",
"7 c #7C623F",
"8 c #7D6340",
"9 c #7C6241",
"0 c #9E834C",
"q c #9E854C",
"w c #9F854C",
"e c #9F844D",
"r c #9E854D",
"t c #9F844F",
"y c #A0824C",
"u c #A1834D",
"i c #A0864D",
"p c #A0854E",
"a c #B39058",
"s c #B29259",
"d c #B3905A",
"f c #B2915B",
"g c #B49159",
"h c #B5905B",
"j c #B4915B",
"k c #B2915C",
"l c #B4905C",
"z c #B5925C",
"x c #BA9A61",
"c c #BB9862",
"v c #BA9963",
"b c #BC9961",
"n c #BD9863",
"m c #BC9963",
"M c #BA9964",
"N c #BB9A64",
"B c #BC9864",
"V c #BD9A64",
/* pixels */
"mBmmmmeeeeeee0eee0e0eeeeeeeeeemmmmmmmmmmmBjjjdjzeeeeeemmmmmmmmmmmmmvmmmmmmmmmmmmmmmmmBmmmmeeeeee",
"mmmmmmeeeeeeeeeeeeeeeeeeeeeee0mmmmmmmmmmmmjjjjjjeeeeeemmmmmmmmmmmmmmmmmmmmmmmmmmmmmmmmmmmmeeeeee",
"mmmmmmeeeeeeeeeeeeeeeeeu0eeeeemmmmmmmmmmmmjjjjjjeeeeeemmmmmmmmmmmmmmmmmmmmmmmmmmmmmmmmmmmmeeeeee",
"mmmmmmeeeeeeeeeeeeeeeeeeeee0eemmmmmmmmmmmmjjjjjjeeeeeemmmmmmmmmmmmmmmmmmmmmmmmmmmmmmmmmmmmeeeeee",
"mmmmmmeeeeeeeeepeeeeeee0eeeeeemmmmmmmmmmmmjjjjjjeeeeeemmmmmmmmmmmmmvmmmmmmmmmmmmmmmmmmmmmmeeeeee",
"mmmmmveeeeeeeeeeeueeeeeeeeeeeemmmmmmmmmmmmjjjjjjeeeeeummmmmmmmmmmmmmmmmmmmmmmvmmmmmmmmmmmmeeeeee",
"mmmmmmmmmmmmjjjjjj<<<<<:jjjjjjjjjjjjeeee0eeeeeepeeeeeeeeeeeeeeeeeejjjjjjeeeeeejjjjjjmmmmmmeeeeee",
"mmmmmmBNmmmmjjjjjj<<<<<<jjjjjjdjjjjdeeeeeeeeeeeeeeeeee0ueeeeeeeeeejjjjjjeeeeeejdjjjjmmmmmmeeeeee",
"mmmmmmmmmmmmjjjjjj<<<<<<jjjjjjjjjjjjeeeeeeeeeeeeeeeeeeeeeeeeeeeeeejjjjjjpeeeeejjjjjjmmmmmmeeeeee",
"mmmmmmmmmmmmjjjjjj<<<<<<jjjjjjjjjjjjeeeeeeeeeeeeeeeeeeeeeeeeeeeeeejjjjjjeeeeeejjjjjjmmmmmmeeeeee",
"mmmmmmmmmmmmjjjjjj<<<<<<jjjjjjjjjjjjeeeeeeeeeeeeeeeeeeeeeeeeeeeeeejjjjjjeeeeeejjjjjjmmmmmmeeeeee",
"mmmmmmmmmmmmjjjjjj<<<<<<jjjjjjjjjjjjeeeeeeeeeeeeeeeeeeeeeeeeeeeeeejjjjdjeeeeeezdjjjjmmmmmmeeeeee",
"mmmmmmmmmmmmeeeeeeeeeeeeeeeeeeeeeeeejjjjjjjjjjjj<<<<<<mmmmmmmmmmmmjjjjzjmmmmmvmmmmmmvmmmmmeeeeee",
"mmmmmmmmmmmmeeeeeeeeeeeeeeeeeeeeeeeejjjjjjjjjjjj<<<<<<mmmmmmmmmmmmjjjjjjmmmmmmmmmmmmmmmmmmeeeeee",
"mmmmmmmmmmmmeeueeeeeeeeeeeeeeeeeeeeejjjjjjjjjjjj<<<<<<mmmmmmmmmmmmjjjjjjmmmmmmmmmmmmmmmmmmeeeeee",
"mmmmmmmmmmmmeeeeeeeeeeeeeeeeeeeeeeeejjjjjjjjjjjj<<<<<<mmmmmmmmmmmmjjjjjjmmmmmmmmmmmmmmmmmmeeeeee",
"mmmmmmmmmmmmeeeeeeeeeeeeeeeeeeeeeeeejjjjjjjjjjjj<<<<<<mmmmmmmmmmmmjjjjjjmmmmmmmmmmmmmmmmBmeeeeee",
"mmmmmmmmmmmmeeeeeee0eeeeeeeeeeeeeeeejjjjjjjjjjjj<<<<<<mmmmmmmmmmmmjjjjjdmmmmmmmmmmmmmmmmmmee0eee",
"&&&&&&&&&&&&&&&##&<<<<<<<<<<<<<<<<<:<<<<<<<<<<<<;<<<<:<<<<<<&&&&&&&&&&&&&&&&&&&&&&&&<<<<<<:<<<<<",
"&&&&&&&&&&&&&&&&&&<<<<<<<<<<<<<<<<<<<<<<<<<<<<<<<<<<<<<<<<<<&&&&&&&&&&&&&&&&&&&&&&&&<<<<<<<<<<<<",
"&&&&&&&&&&&&&&&&&&<<<<<<<<<<<<<<<<<<<<<<<<<<<<<<<<<<<<<<<<<<&&&&&&&&&&&&&&&&&&&&&&&&<<<<<<<<:<<<",
"&&&&&&&&&&&&&&&&&&<<<<<<<<<<<<<<<<<<<<<<<<<<<<<<<<<<<<<<<<<<&&&&&&&&&&&&&&&&&&&&&&&&<<<<<<<<<<<<",
"&&&&&&&&&&&&#&&&&&<<<<<<<<<<<<<<<<<<<<<<<<<<<<<<<<<<<<<<<<<<&&&&&&&&&&&&&&&&&&&&&&&&<<<<<<<<<<<<",
"&&&&&&&&&&&&&&&&&&<<<<<<<<<<<<<<:<<<<<<<<<<<<<<<<<<<<;<<<<:<&&&&&#&&&&&&&&&&&&&&&&&&<:<<<<<<<<<<",
"mmmmmmeeeeeeeeeeepeeeeeeeeeeeemmmmmmmBmmmmeeeeeemBmmmmeeeeeeeeeeee<<<<<;jjjjjjjjjjjjjjjjjdmmmBmv",
"mmvmmmeeeeeeeeeeeeueeeeeeeeee0mmmmmmmmmmmmeeeeeemmvmmmeeeeeeeeeeee<<<<<<jjjjjjjjjjjjjjjjjjmmmmmm",
"mvmmmmeeeeeeeeeepeeeepee0eeeeemmmmmmmmmmmmeeeeeeBmmmmBeeeeeeeeeeee<<<<<<jjjjjjjjjjjjjjjjjjmmmmmm",
"mmmBmmeeeeeeeeeeeeeeeeeeeee0eemmmmmmmmmmmmeeeeeemmmBmmeeeeeeeeeeee<<<<<<jjjjjjjjjjjjjjjjjjmmmmmm",
"mmmmmmeeeeeeeeeeeeeeeeeeeeeeeemmmmmmmmmmmmeeeeeemmmmmmeeeeeeeeeeee<<<<<<jjjjjjjjjjjjjjjjjjmmmmmm",
"mmmmmmeeeeeueeeeeeeeeeeeeeeeeemmmmmmmmmmmmeeeeeemmmmmveeeeeeeeeeee<<<<<<jjjjjjjjjjjjjjjjjjmmmmmm",
"eeeeeeeeeeee<<<<<<jdjdjzjjjjjjjjjjjjmmmmmmeeeeeejjjjjjjjjjjjjjjjjjjjdjdjeeeeeeeeeeeeeeeee0eeeee0",
"eeeeeeeeeeee<<<<<<jjjjjjjjjjjjdjjjjjmmmmmmeeeeeejjjjjjjdjjjjjjjjjjjjjjjjeeeeeeeeeeeeeeeeeeeeeeee",
"eeeeeeeeeeee<<<<<<jjjjjjjjjjjjjjjjjjmmmmmmeeeeeejjjjjjjjjjjjjjjjjjjjjjjjeeeeeeeeeeeeeeeeeeeeeeee",
"eeeeeeeeeeee<<<<<<jjjjjjjjjjjjjjjjjjmmmmmmeeeeeejjjjjjjjjzjjjjdjjjjjjjjjeeeeeeeeeeeeeeeeeeeeeeee",
"eeeeeeeeeeee<:<<<<jzjjjjjjjjjjjjjjjjmmmmmmeeeeeejjjjjjjjjjjjjjjjjjjjjjjjeeeeeeeeeeeeeeeeeeeeeeee",
"eeeeeeeeeeee<<<<<<jjjjjjjjjjjjjjjjjjmmmmmmeeeeeejjjjjjjjjjjjjjjjjjjjjjjjeeeeeeeeeeeeeeeeeeeeeeee",
"mmmmmmmmmmmmmmmmmmjjjjjjmmmmmmmmmmmmvmmmmmeeeeeeeeeeeeeeeeee<<<<<<mmmmmmmmmmmmmmmmmmmmmmmmmmmmmm",
"mmmmmmmmmmmmmmmmmmjjjjjjmmmmmmmmmmmmmmmmmmeeeeeeeeeeeeeeeeee<:<<<<mmmmmmmmmmmmmmmmmmmmmmmmmmmmmm",
"mmmmmmmmmmmmmmvmmmjjjjjjmmmmmmmmmmmmmmmmmmeeeeeeeeeeeeeeeeee<<<<<<mmmmmmmmmmmmmmmmmmmmmmmmmmmmmm",
"mmmmmmmmmmmmmmmmmmjjjjjjmmmmmmmmmmmmmmmmmmeeeeeeeeeeeeeeeeee<<<<<<mmmmmmmmmmmmmmmmmmmmmmmmmmmmmm",
"mmmmmmmmmmmmmmmmmmjjjjjjmmmmmmmmmmmmmmmmmmeeeepeeeeeeeeeeeee<<<<<<mmmmmBmmmmmmmmmmmmmmmmmmmmmmmm",
"mmmmmmmmmmmmmmmmmmjjjjjdmmmmmmmmmmmmmmmmmmueeeeeeeeeeeeeeeee<<<<<<mmmmmmmmmmmmmmmmmmmmmmmmmmmmmm",
"<<<<<<<<<<<<&&&&&&&&&&&&&&&&&&&&&&&&&&&&&&<<<<<<<<<<<<<<<<<<&&&&&&&&&&&&&&&&&&&&&&&&<<<<<<<<<<<<",
"<<<<<<<<<<<<&&&&&&&&&&&&&&&&&&&&&&&&&&&&&&<<<<<<<<<<<<<<<<<<&&&&&&&&&&&&&&&&&&&&&&&&<<<<<<<<<<<<",
"<<<<<<<<<<<<&&&&&&&&&&&&&&&&&&&&&&&&&&&&&&<<<<<<<<<<<<<<<<<<&&&&&&&&&&&&&&&&&&&&&&&&<<<<<<<<<<<<",
"<<<<<<<<<<<<&&&&&&&&&&&&&&&&&&&&&&&&&&&&&&<<<<<<<<<<<<<<<<<<&&&&&&&&&&&&&&&&&&&&&&&&<<<<<<<<<<<<",
"<<<<<<<<<<<<&&&&&&&&&&&&&&&&&&&&&&&&&&&&#&<<<<<<<<<<<<<<<<<<&&&&&&&&&&#&&&&&&&&&&&&&<<<<<<<<<<<<",
"<<<<<<<<<<:<&&&&&#&&&&&&&&&&&&&&&&&&&&&&&&<<<<<<<<<<<<<<<<<<&&&&&&&&&&&&&&&&&&&&&&&&<:<<<<<<<<<<",
"mmmmmmmmmmmmmmmmmmmmmmmmmmmmNm<<<<<<eueeeemmmmBmvmBmmmdjjjjjjjjjjjjjjjjjmmvmmmmmmmmmmmmmmmeeeeee",
"mmmmmmmmmmmmmmmmmmmmmmmmmvmmmm<<<<<<eeeeeemmmvmmmmmmmmjjjjjjjjjjzjjzjjjjmmmmmmmmmmmmmmmmmmeeeeee",
"mmmmmmmmmmmmmmmmmmmmmmmmmmBmmm<<<<<<ee0eeeBmmmmBmmmmmmjjjjjjjjjjjjjjjjjjmmmmmmmmmmmmmmmmmmeeeeee",
"mmmmmmmmmmmmmmmmmmmmmmmmmmmmmB<<<<<<eeeeeemmBmmmmmmmmmjjjjjjjjjjjjjdjjdjmmmmmmmmmmmmmmmmmmeeeeee",
"mmmmmmmmmmmmmmmmmmmmmmmmNmmmmm<<<<<<eeeeeemmmmmmmmmmmmjjjjjjjjjjjjjjjjddmmmmvmmmmmmmmmmmmmeeeeee",
"mmmmmmmmmmmmmmmmmmmmmmmmmmmmmm<<<<<<epeeeevmmmmmmmmmmmjjjjjjjjjjjjdjjjjjmmmmmmmmmmmmmmmmmmueeeee",
"eeeeeeeeeeeeeeeeeeeeeeeeeeeeeemmmmmmjjjjjjjjjjjj0eeeee0eeeeeeeeeee<<<<<<mmmmmmeeeeeeeeeeeeeeeeee",
"eeeeeeeeeeeeeeeeeeeeeeeeeeeeeemmmmmmdjjjdjjjjjjjeeeeeeeeeeeeeeeeee<<<<<<mmmmmme0eeeeeeeeu0eeeeee",
"eeeeeeeeeeeeeeeeeeeeeeeeeeeeeemmmmmmjjjjjjjjjjjjeeeeeeeeeeeeeeeeee<<:<<<mmmmmmeeeeeeeeeeeeeeeeee",
"eeeeeeeeeeeeeeeeeeeeeeeeeeeeeemmmmmmjjjjjjjjjjjjeeeeeeeeeeeeeeeeee<<<<<<mmmmmmeeeeeeeeeeeeeeeeee",
"peeeeeeeeeeeeeeeeeeeeeeeeeeeeemmmmmmjjjjjjjjjjjjeeeeeeeeeeeeeeeeee<<<<<<mmmmmmeeeeeeeeeeeeeeeeee",
"eeeeeeeeeeeeeeeeeeeeeeeeepeeeeBmmmmmjjjjjjjjjjjjeeeeeeeeeeeeeeeeee<<<<<<mvmmmmeeeeeeeeeeeeeeeeee",
"mmmmmmjjjjjjjjjjjjjjjjjjmvmmmvmmmmmmeeeeeeeeeeeeeeeeeeeeeeeejjjjjjdjjjjjjjjjjjjjjjjjjjjjjzeeeeee",
"mmmmmmjjjjjjjjjjjjjjjjjjmmmmmmmmmmmmeeeeeeeeeeeeeeeeeeeeeeeejjjjjjjjjjjjjjjjjjjjjjjjjjjjjjeeeeee",
"mmmmvmjjjjjjjjjjjjjjjjjjmmmmmmmmmmmmeeueeeeeeeeeeeeeeeeeeeeejjdjjjjjjjjjjjjjjjjjjjjjjjjjjjeeeeee",
"mmmmmmjjjjjjjjjjjjjjjjjjmmmmmmmmmmmmeeeeeeeeeeeeeeeeeeeeeeeejjjjjjjjjjjjjjjjjjjjjjjjjjjjjjeeeeee",
"Bmmmmmjjjjjjjjjjjjjjjjjjmmmmmmmmmmmmeeeeeeeeeeeeeeeeeeeeeeeejjjjjjjjjjjjjjjjjjjjjjjjjjjjjjeeeeee",
"mmmmmmzjjjjjjjjjjjjjjjjjmmmmmmmmmmmmeeeeeee0eeeeeeeeeeeeeeeejjjjjjjjjjjjjjjjjjjjjjjjjjjjjjueeeee",
"<<<<<<&&&&&&<<<<<<<<<<<<&&&&&&&&&&&&&&&##&<<<<<<<<<<<<<<<<<:<<<<<<<<<<<<&&&&&&&&&&&&&&&&&&<<<<<<",
"<<<<<<&&&&&&<<<<<<<<<<<<&&&&&&&&&&&&&&&&&&<<<<<<<<<<<<<<<<<<<<<<<<<<<<<<&&&&&&&&&&&&&&&&&&<<<<<<",
"<<<<<<&&&&&&<<<<<<<<<<<<&&&&&&&&&&&&&&&&&&<<<<<<<<<<<<<<<<<<<<<<<<<<<<<<&&&&&&&&&&&&&&&&&&<<<<<<",
"<<<<<<&&&&&&<<<<<<<<<<<<&&&&&&&&&&&&&&&&&&<<<<<<<<<<<<<<<<<<<<<<<<<<<<<<&&&&&&&&&&&&&&&&&&<<<<<<",
"<<<<<<&&&&&&<<<:<<<<<<<<&&&&&&&&&&&&#&&&&&<<<<<<<<<<<<<<<<<<<<<<<<<<<<<<&&&&&&&&&&&&&&&&#&<<<<<<",
";<<<<<&&&&&&<<<<<<<<<<<<&&&&&&&&&&&&&&&&&&<<<<<<<<<<<<<<:<<<<<<<<<<<<<<<&&&&&&&&&&&&&&&&&#<<<<<<",
"mmmmvmmmmmvmmmmmmmBmmmmmmBmmmmeeeeeemmmmmmeeeeeeeeeeee<<<<<<eueeeeepeeeezjdjjjBmmmmmmmmmmmmvmmmm",
"mmmmmmmmmmmmmmmmmmmmmmvmmmmmmmeeeeepvmmmmmeeeeeeeeeeee<<<<<<eeeeeeeeeeeejjjjjjmmmmmmmmmmmmmmmmmm",
"mmmmmmmmmmmmmmmmmmmmmmmmmmmmmmeeeeeemmmmmmeeeeeeeeeeee<<<<<<eeeeeeeeeeeejjjjjjmmmmmmmmmmmmmmmmmm",
"mmmmmmmmmmmmmmmmmmmmmmmmmmmmmmeeeeeemmmmmmeeeeee0eepee<<<<<<eeeeeeeeeeeejjjjjjmmmmmmmmmmmmmmmmmm",
"mmmmvmmmmmmmmmmmmmmmmmmmmmmmmmeeeeeemmmmmmeeeeeeeeepue<<<<<<eeeeeeeueeeejjjjjjmmmmmmmmmmmmmvmmmm",
"mmmmmmmmmmmmmmmmmmBmmmmBmmmmmveeeeeevmmmmmeeeeeeeeeeee<<<<<<eeeeeeeeeeeejjjjjjmmmmmmmmmmmmmmmmmm",
"jjjjjjeeeeee<<<<<<mmmmmmmmmmmmmmmmmBmmmmmmeeeeeemmmmvmjjjjjjjjjjjzeeeeeepeeeeee0eeeeeeeeeejjjjjj",
"jjjjjjeeee0u<<<<<<mmmmmmmmmmmmBNmmmmmmmmmmeeeeeemvmmmmjdjjjjjjjjjjeeeeeeeeeeeeeeeeeeeeeeeejjjjjj",
"djjjjjeeeeee<<<<<<mmmmmmmmmmmmmmmmmmmmmmmmeeeeeemmmmmmjjjjjjjjjjjjeeeeeeeeeeeeeeeeeeeeeeeejjjjjd",
"jjjjjjeeeeee<<<<<<mvmmmmmmmmmmmmmmmmmmmmmmeeeeeemmmmmmjjjjjjjjjjjjeueeeeeeeeeeeeeeeeeeeeeejjjjjj",
"jjjjjjeeeeee<<<<<;mmmmmmmmmmmmmmmmmmmmmmmmeeeeeemmmmmmjjjjjjjdjjjjeeeeeeeeeeeeeeeeeeeeeeeejjjjjj",
"jjjjjjepeeee<<<<<<mmmmmmmvmmmvmmmmmmmmmmmmeeeeeemmmmmmjjjjjjjjjjjjeeeeeeeeeeeeeeeeeeeeeepejjjjjj",
"mmmmmmmmmmmmeeeeeeeeeeeeepeeeeBmmmmmmmmmmmeeeeeemmmmmmmmmmmmeeeeeejjjjjjmmmmmmmmmmmmmmmmmmmmmmmm",
"mmmmmmmmmmmmeeeeeeeeeeeeeeeeeemmmmmmmmmmmmeeeeeeBmmmmmmmmmmmeeeeeejjjjjjmmmmmmmmmmmmmmmmmmmmmmmm",
"mmmmmmmmmmmmeeeeeeeueeeeeeeeeemmmmmmmmmmmmeeeeeemmmmmmmmmmmmeeueeejdjjjjmmmmmmmmmmmmmmmmmmmmmmmm",
"mmmmmmmmmmmmeeeeeeeeeeeeeeeeeemmmmmmmmmmmmeeeeeemmmmmmmmmmmmeeeeeejjjjjjmmmmmmmmmmmmmmmmmmmmmmmm",
"mmmmmmmmmmmmeeeeeeeeeeeeeee0eemvmmmvmmmmmBeeeeeemmmmmmmmmmmmeeeeeejjjjjjmmmmmmmmmmmmmmmmmmmmmmmB",
"mmmmmmmmmmmmeeeeeeeeeeeeeeeeeeBBmmmmmmmmmmpeeeeemmmmmmmmmmmmeeeeeekjjjjzmmmmmmmmmmmmmmmmmBmvmmmm",
"<<<<<<<<<<<<:<<<::666644&&&&&&&&&&&&466666&&&&#&<<<<<<<<<<<<:<<<<<&&&&&&oooooo&&&&&&&&&&&&<<<<<<",
"<<<<<<<<<<<<<<<<::666644&&&&&&&&&&&&666966&&&&&&<<<<<<<<<<<<<<<<<<&&&&&&oooo.o&&&&&&&&&&&&<:<<<<",
"<<<<<<<<<<<<<<::<<666666&&&&&&&&&&&&666666&&&&&&<<<<<<<<<<<<<<<<<<&&&&&&oooooo&&&&&&&&&&&&<<<<<<",
"<<<<<<<<<<<<<<<:<<666466&&&&&&&&&&&&666666&&&&&&<<<<<<<<<<<<<<<<<<&&&&&&oooooo&&&&&&&&&&&&<<<<<<",
"<<<<<<<<<<<<:<<:<<666666&&#&&&&&&&&&666644&&&&&&<<<<<<<<<<<<:<<<<<&&&&#&o.oooo&&&&&&&&&&&&<<<<<<",
"<<<<<<<<<<<<<<<<<<666666&&&&&&&&&&&&449664&&&&&#<<<<<<<<<<<<<<<<<<&&&&&#+oo.oo&&&&&&&&&&&&<<<<<;"
};
