/* XPM */
static char *_32c3c2fe8e24042a4da788e8f6ec7adYpft4aDQoqVxk7Rt[] = {
/* columns rows colors chars-per-pixel */
"16 16 18 1 ",
"  c #5B5B5B",
". c #5D5D5D",
"X c #606060",
"o c #656565",
"O c DimGray",
"+ c gray43",
"@ c gray45",
"# c #747474",
"$ c #797979",
"% c gray50",
"& c #888888",
"* c #8D8D8D",
"= c #909090",
"- c #979797",
"; c #989898",
": c #9F9F9F",
"> c #A0A0A0",
", c #A4A4A4",
/* pixels */
":;>:=:-----;***X",
":&&&$&&&@%%$%%$X",
"=$$$&$%%%&%%%@O.",
"-@%&%%$$$$$%%&+.",
"-$$$$$&&&&&@%&#.",
"=$$$%@%%$$@%$$OX",
"*@$#++++##@o+#@X",
"........ .XXXX..",
"----::-.,:;*;:=:",
"$$%@%%+.-&%%$$$$",
"&&$@$&#X-%%%%&$$",
"%%%&&%+.:&@@%%%$",
"$$$&&$O.-$%%$$$$",
"%%$$$@OX=&&%&$&@",
"OOO+O#$X&+#@++OO",
"XX........XX...."
};
